<svg width="95" height="95" viewBox="0 0 95 95" fill="none" xmlns="http://www.w3.org/2000/svg">
<path d="M35.625 7.91675C25.2541 7.91675 16.8229 16.348 16.8229 26.7188C16.8229 36.8917 24.7791 45.1251 35.15 45.4813C35.4666 45.4417 35.7833 45.4417 36.0208 45.4813C36.1 45.4813 36.1395 45.4813 36.2187 45.4813C36.2583 45.4813 36.2583 45.4813 36.2979 45.4813C46.4312 45.1251 54.3875 36.8917 54.427 26.7188C54.427 16.348 45.9958 7.91675 35.625 7.91675Z" fill="#90A3BF"/>
<path d="M55.7333 56.0104C44.6895 48.6479 26.6791 48.6479 15.5562 56.0104C10.5291 59.375 7.7583 63.9271 7.7583 68.7958C7.7583 73.6646 10.5291 78.1771 15.5166 81.5021C21.0583 85.2229 28.3416 87.0833 35.625 87.0833C42.9083 87.0833 50.1916 85.2229 55.7333 81.5021C60.7208 78.1375 63.4916 73.625 63.4916 68.7167C63.452 63.8479 60.7208 59.3354 55.7333 56.0104Z" fill="#90A3BF"/>
<path d="M79.1271 29.0542C79.7604 36.7333 74.2979 43.4625 66.7375 44.3729C66.6979 44.3729 66.6979 44.3729 66.6583 44.3729H66.5396C66.3021 44.3729 66.0646 44.3729 65.8666 44.4521C62.0271 44.65 58.5041 43.4229 55.8521 41.1667C59.9291 37.525 62.2646 32.0625 61.7896 26.125C61.5125 22.9187 60.4041 19.9896 58.7416 17.4958C60.2458 16.7437 61.9875 16.2687 63.7687 16.1104C71.5271 15.4375 78.4541 21.2167 79.1271 29.0542Z" fill="#90A3BF"/>
<path d="M87.0437 65.6687C86.7271 69.5083 84.2729 72.8333 80.1562 75.0895C76.1979 77.2666 71.2104 78.2958 66.2625 78.177C69.1125 75.6041 70.775 72.3979 71.0917 68.9937C71.4875 64.0854 69.1521 59.3749 64.4812 55.6145C61.8292 53.5166 58.7417 51.8541 55.3771 50.627C64.125 48.0937 75.1292 49.7958 81.8979 55.2583C85.5396 58.1874 87.4 61.8687 87.0437 65.6687Z" fill="#90A3BF"/>
</svg>
